<svg width="20" height="20" viewBox="0 0 16 14" fill="none" xmlns="http://www.w3.org/2000/svg">
    <path d="M0.5 14H2C2.4125 14 2.75 13.6625 2.75 13.25V6.5C2.75 6.0875 2.4125 5.75 2 5.75H0.5V14ZM15.3725 8.66C15.455 8.4725 15.5 8.27 15.5 8.06V7.25C15.5 6.425 14.825 5.75 14 5.75H9.875L10.565 2.2625C10.6025 2.0975 10.58 1.9175 10.505 1.7675C10.3325 1.43 10.115 1.1225 9.845 0.8525L9.5 0.5L4.6925 5.3075C4.4075 5.5925 4.25 5.975 4.25 6.3725V12.2525C4.25 13.2125 5.0375 14 6.005 14H12.0875C12.6125 14 13.1075 13.7225 13.3775 13.2725L15.3725 8.66V8.66Z" fill="#8f908f"/>
</svg>
