<svg width="20" height="20" viewBox="0 0 15 14" fill="none" xmlns="http://www.w3.org/2000/svg">
    <path d="M15 0H13.5C13.0875 0 12.75 0.3375 12.75 0.75L12.75 7.5C12.75 7.9125 13.0875 8.25 13.5 8.25H15L15 0ZM0.127501 5.34C0.0450005 5.5275 0 5.73 0 5.94L0 6.75C0 7.575 0.675 8.25 1.5 8.25L5.625 8.25L4.935 11.7375C4.8975 11.9025 4.92 12.0825 4.995 12.2325C5.1675 12.57 5.385 12.8775 5.655 13.1475L6 13.5L10.8075 8.6925C11.0925 8.4075 11.25 8.025 11.25 7.6275L11.25 1.7475C11.25 0.787499 10.4625 0 9.495 0L3.4125 0C2.8875 0 2.3925 0.277499 2.1225 0.727499L0.127501 5.34V5.34Z" fill="#8F908F"/>
</svg>
